<svg width="114" height="24" viewBox="0 0 114 24" fill="none" xmlns="http://www.w3.org/2000/svg">
<path d="M0 18.1364V0.681885H6.54545C7.88636 0.681885 9.01136 0.914839 9.92045 1.38075C10.8352 1.84666 11.5256 2.50007 11.9915 3.34098C12.4631 4.1762 12.6989 5.15064 12.6989 6.26427C12.6989 7.38359 12.4602 8.35518 11.983 9.17904C11.5114 9.99723 10.8153 10.6307 9.89489 11.0796C8.97443 11.5228 7.84375 11.7444 6.50284 11.7444H1.84091V9.11938H6.0767C6.8608 9.11938 7.50284 9.01143 8.00284 8.79552C8.50284 8.57393 8.87216 8.25291 9.1108 7.83245C9.35511 7.40632 9.47727 6.88359 9.47727 6.26427C9.47727 5.64495 9.35511 5.11654 9.1108 4.67904C8.86648 4.23586 8.49432 3.90063 7.99432 3.67336C7.49432 3.44041 6.84943 3.32393 6.05966 3.32393H3.16193V18.1364H0ZM9.01705 10.2273L13.3381 18.1364H9.80966L5.56534 10.2273H9.01705Z" fill="url(#paint0_linear_77_2515)"/>
<path d="M20.121 18.3921C18.8085 18.3921 17.6749 18.1194 16.7204 17.5739C15.7715 17.0228 15.0414 16.2444 14.5301 15.2387C14.0187 14.2273 13.763 13.037 13.763 11.6677C13.763 10.3211 14.0187 9.13927 14.5301 8.12223C15.0471 7.0995 15.7687 6.30404 16.6948 5.73586C17.621 5.162 18.709 4.87507 19.959 4.87507C20.7659 4.87507 21.5272 5.00575 22.2431 5.26711C22.9647 5.52279 23.6011 5.92052 24.1522 6.46029C24.709 7.00007 25.1465 7.68757 25.4647 8.52279C25.7829 9.35234 25.942 10.341 25.942 11.4887V12.4347H15.2119V10.3552H22.9846C22.9789 9.76427 22.8511 9.2387 22.6011 8.77848C22.3511 8.31257 22.0016 7.94609 21.5528 7.67904C21.1096 7.412 20.5926 7.27848 20.0016 7.27848C19.371 7.27848 18.817 7.43188 18.3397 7.7387C17.8624 8.03984 17.4903 8.43757 17.2232 8.93188C16.9619 9.42052 16.8284 9.95745 16.8227 10.5427V12.358C16.8227 13.1194 16.9619 13.7728 17.2403 14.3182C17.5187 14.858 17.9079 15.2728 18.4079 15.5626C18.9079 15.8467 19.4931 15.9887 20.1636 15.9887C20.6124 15.9887 21.0187 15.9262 21.3823 15.8012C21.746 15.6705 22.0613 15.4802 22.3284 15.2302C22.5954 14.9802 22.7971 14.6705 22.9335 14.3012L25.8141 14.6251C25.6323 15.3864 25.2857 16.0512 24.7744 16.6194C24.2687 17.1819 23.621 17.6194 22.8312 17.9319C22.0414 18.2387 21.138 18.3921 20.121 18.3921Z" fill="url(#paint1_linear_77_2515)"/>
<path d="M33.2853 23.3182C32.1773 23.3182 31.2256 23.1677 30.4301 22.8665C29.6347 22.5711 28.9955 22.1734 28.5125 21.6734C28.0296 21.1734 27.6943 20.6194 27.5068 20.0114L30.2853 19.3381C30.4103 19.5938 30.5921 19.8467 30.8307 20.0967C31.0693 20.3523 31.3904 20.5626 31.7938 20.7273C32.2029 20.8978 32.7171 20.983 33.3364 20.983C34.2114 20.983 34.9358 20.77 35.5097 20.3438C36.0836 19.9234 36.3705 19.2302 36.3705 18.2643V15.7842H36.2171C36.058 16.1023 35.825 16.429 35.5182 16.7643C35.2171 17.0995 34.8165 17.3807 34.3165 17.608C33.8222 17.8353 33.2 17.9489 32.45 17.9489C31.4443 17.9489 30.5324 17.7131 29.7142 17.2415C28.9017 16.7643 28.254 16.054 27.7711 15.1109C27.2938 14.162 27.0551 12.9745 27.0551 11.5484C27.0551 10.1109 27.2938 8.89779 27.7711 7.90916C28.254 6.91484 28.9046 6.162 29.7228 5.65063C30.5409 5.13359 31.4529 4.87507 32.4585 4.87507C33.2256 4.87507 33.8563 5.00575 34.3506 5.26711C34.8506 5.52279 35.2483 5.83245 35.5438 6.19609C35.8392 6.55404 36.0637 6.89211 36.2171 7.21029H36.3875V5.04552H39.4301V18.3495C39.4301 19.4688 39.1631 20.395 38.629 21.1279C38.0949 21.8609 37.3648 22.4092 36.4387 22.7728C35.5125 23.1364 34.4614 23.3182 33.2853 23.3182ZM33.3108 15.5285C33.9642 15.5285 34.521 15.3694 34.9813 15.0512C35.4415 14.733 35.7909 14.2756 36.0296 13.679C36.2682 13.0825 36.3875 12.3665 36.3875 11.5313C36.3875 10.7075 36.2682 9.98586 36.0296 9.36654C35.7966 8.74723 35.45 8.26711 34.9898 7.9262C34.5353 7.57961 33.9756 7.40632 33.3108 7.40632C32.6233 7.40632 32.0495 7.58529 31.5892 7.94325C31.129 8.3012 30.7824 8.79268 30.5495 9.41768C30.3165 10.037 30.2 10.7415 30.2 11.5313C30.2 12.3325 30.3165 13.0342 30.5495 13.6364C30.7881 14.233 31.1375 14.6989 31.5978 15.0342C32.0637 15.3637 32.6347 15.5285 33.3108 15.5285Z" fill="url(#paint2_linear_77_2515)"/>
<path d="M47.4275 18.3921C46.115 18.3921 44.9815 18.1194 44.027 17.5739C43.0781 17.0228 42.348 16.2444 41.8366 15.2387C41.3253 14.2273 41.0696 13.037 41.0696 11.6677C41.0696 10.3211 41.3253 9.13927 41.8366 8.12223C42.3537 7.0995 43.0753 6.30404 44.0014 5.73586C44.9275 5.162 46.0156 4.87507 47.2656 4.87507C48.0724 4.87507 48.8338 5.00575 49.5497 5.26711C50.2713 5.52279 50.9076 5.92052 51.4588 6.46029C52.0156 7.00007 52.4531 7.68757 52.7713 8.52279C53.0895 9.35234 53.2486 10.341 53.2486 11.4887V12.4347H42.5184V10.3552H50.2912C50.2855 9.76427 50.1576 9.2387 49.9076 8.77848C49.6576 8.31257 49.3082 7.94609 48.8593 7.67904C48.4162 7.412 47.8991 7.27848 47.3082 7.27848C46.6775 7.27848 46.1236 7.43188 45.6463 7.7387C45.169 8.03984 44.7968 8.43757 44.5298 8.93188C44.2684 9.42052 44.1349 9.95745 44.1292 10.5427V12.358C44.1292 13.1194 44.2684 13.7728 44.5468 14.3182C44.8253 14.858 45.2145 15.2728 45.7145 15.5626C46.2145 15.8467 46.7997 15.9887 47.4701 15.9887C47.919 15.9887 48.3253 15.9262 48.6889 15.8012C49.0525 15.6705 49.3679 15.4802 49.6349 15.2302C49.902 14.9802 50.1037 14.6705 50.24 14.3012L53.1207 14.6251C52.9389 15.3864 52.5923 16.0512 52.0809 16.6194C51.5753 17.1819 50.9275 17.6194 50.1378 17.9319C49.348 18.2387 48.4446 18.3921 47.4275 18.3921Z" fill="url(#paint3_linear_77_2515)"/>
<path d="M57.9839 10.466V18.1364H54.8986V5.04552H57.8475V7.26995H58.0009C58.302 6.537 58.7822 5.95461 59.4412 5.52279C60.106 5.09098 60.927 4.87507 61.9043 4.87507C62.8077 4.87507 63.5947 5.06825 64.2651 5.45461C64.9413 5.84098 65.464 6.40064 65.8333 7.13359C66.2083 7.86654 66.393 8.75575 66.3873 9.8012V18.1364H63.302V10.2785C63.302 9.40348 63.0748 8.71882 62.6202 8.2245C62.1714 7.73018 61.5492 7.48302 60.7537 7.48302C60.214 7.48302 59.7339 7.60234 59.3134 7.84098C58.8986 8.07393 58.5719 8.412 58.3333 8.85518C58.1003 9.29836 57.9839 9.83529 57.9839 10.466Z" fill="url(#paint4_linear_77_2515)"/>
<path d="M68.4102 18.1364L71.3079 0.681885H76.6858C77.7881 0.681885 78.7 0.897794 79.4216 1.32961C80.1489 1.75575 80.6602 2.35234 80.9557 3.11938C81.2568 3.88643 81.325 4.77564 81.1602 5.787C80.9898 6.787 80.629 7.66768 80.0778 8.42904C79.5267 9.18473 78.8193 9.77563 77.9557 10.2018C77.0977 10.6279 76.1176 10.841 75.0153 10.841H70.1915L70.3534 9.84382H75.1517C76.0437 9.84382 76.8364 9.6762 77.5295 9.34098C78.2284 9.00575 78.7966 8.53416 79.2341 7.9262C79.6773 7.31825 79.967 6.60518 80.1034 5.787C80.2398 4.95177 80.1886 4.22734 79.95 3.6137C79.7114 2.99438 79.2994 2.51711 78.7142 2.18188C78.129 1.84098 77.3875 1.67052 76.4898 1.67052H72.2028L69.4756 18.1364H68.4102ZM76.8989 10.2273L79.8733 18.1364H78.6716L75.7142 10.2273H76.8989Z" fill="url(#paint5_linear_77_2515)"/>
<path d="M85.4715 18.4177C84.7159 18.4177 84.0482 18.2671 83.4687 17.966C82.8948 17.6648 82.4659 17.2245 82.1818 16.645C81.8977 16.0654 81.821 15.3609 81.9517 14.5313C82.0482 13.9859 82.2272 13.5057 82.4886 13.091C82.7499 12.6762 83.1079 12.3182 83.5624 12.0171C84.017 11.716 84.5738 11.4688 85.2329 11.2756C85.8977 11.0768 86.6732 10.9234 87.5596 10.8154C88.2414 10.7359 88.8494 10.6563 89.3835 10.5768C89.9176 10.4972 90.3494 10.3751 90.6789 10.2103C91.0085 10.0455 91.2017 9.79836 91.2585 9.46882L91.3437 8.92336C91.5028 7.9745 91.3409 7.21882 90.8579 6.65632C90.3749 6.08814 89.6051 5.80404 88.5482 5.80404C87.6164 5.80404 86.7812 6.01427 86.0426 6.43473C85.3039 6.8495 84.7528 7.37507 84.3892 8.01143L83.4857 7.64495C83.838 7.01995 84.284 6.50007 84.8238 6.08529C85.3693 5.67052 85.9659 5.36086 86.6136 5.15632C87.267 4.95177 87.9318 4.8495 88.6079 4.8495C89.1931 4.8495 89.7386 4.93188 90.2443 5.09666C90.7499 5.26143 91.1818 5.51143 91.5397 5.84666C91.9034 6.18188 92.1619 6.61086 92.3153 7.13359C92.4744 7.65064 92.4914 8.26995 92.3664 8.99154L90.8494 18.1364H89.8096L90.2102 15.7756H90.1335C89.8267 16.2643 89.4403 16.7103 88.9744 17.1137C88.5142 17.5114 87.9886 17.8296 87.3977 18.0682C86.8068 18.3012 86.1647 18.4177 85.4715 18.4177ZM85.6676 17.4546C86.4857 17.4546 87.2471 17.2557 87.9517 16.858C88.6619 16.4546 89.2585 15.9035 89.7414 15.2046C90.2301 14.5057 90.5454 13.7131 90.6874 12.8268L91.0198 10.9006C90.8664 11.0143 90.659 11.1165 90.3977 11.2075C90.1363 11.2927 89.8437 11.3694 89.5198 11.4376C89.2016 11.5001 88.8693 11.5569 88.5227 11.608C88.1818 11.6535 87.8494 11.6961 87.5255 11.7359C86.5539 11.8495 85.7499 12.0256 85.1136 12.2643C84.4772 12.4972 83.9857 12.804 83.6392 13.1847C83.2982 13.5654 83.0795 14.0256 82.9829 14.5654C82.8409 15.4575 83.0227 16.162 83.5284 16.679C84.0397 17.1961 84.7528 17.4546 85.6676 17.4546Z" fill="url(#paint6_linear_77_2515)"/>
<path d="M101.058 5.04552L100.896 5.9745H95.1862L95.3397 5.04552H101.058ZM97.7857 1.90916H98.8169L96.6522 15.0427C96.5612 15.5768 96.5897 16.0143 96.7374 16.3552C96.8908 16.6904 97.1209 16.9404 97.4277 17.1052C97.7402 17.2643 98.0953 17.3438 98.4931 17.3438C98.6692 17.3438 98.8283 17.3296 98.9703 17.3012C99.1124 17.2671 99.2544 17.2302 99.3965 17.1904L99.4902 18.1364C99.3141 18.1989 99.1266 18.2501 98.9277 18.2898C98.7289 18.3296 98.4987 18.3495 98.2374 18.3495C97.6919 18.3495 97.1976 18.2273 96.7544 17.983C96.3169 17.7387 95.9845 17.3836 95.7573 16.9177C95.5357 16.4518 95.4817 15.8893 95.5953 15.2302L97.7857 1.90916Z" fill="url(#paint7_linear_77_2515)"/>
<path d="M106.704 18.4092C105.522 18.4092 104.542 18.1165 103.763 17.5313C102.985 16.9461 102.442 16.145 102.135 15.1279C101.829 14.1109 101.783 12.9518 101.999 11.6506C102.215 10.3438 102.647 9.17904 103.294 8.15632C103.942 7.13359 104.735 6.32677 105.672 5.73586C106.61 5.14495 107.621 4.8495 108.706 4.8495C109.439 4.8495 110.107 4.99723 110.709 5.29268C111.317 5.58813 111.829 6.01143 112.243 6.56257C112.658 7.10802 112.945 7.76995 113.104 8.54836C113.263 9.32677 113.263 10.2018 113.104 11.1734L112.985 11.8211H102.621L102.783 10.8751H112.098C112.257 9.93188 112.212 9.07961 111.962 8.31825C111.712 7.5512 111.297 6.94325 110.718 6.49438C110.144 6.04552 109.439 5.82109 108.604 5.82109C107.752 5.82109 106.939 6.06825 106.167 6.56257C105.4 7.0512 104.74 7.70461 104.189 8.52279C103.644 9.34098 103.28 10.2415 103.098 11.2245L102.996 11.7529C102.814 12.8779 102.837 13.8694 103.064 14.7273C103.297 15.5796 103.729 16.2472 104.36 16.7302C104.99 17.2075 105.814 17.4461 106.831 17.4461C107.542 17.4461 108.172 17.3268 108.723 17.0881C109.28 16.8438 109.752 16.5484 110.138 16.2018C110.53 15.8552 110.837 15.52 111.059 15.1961L111.919 15.5796C111.658 16.0171 111.283 16.4546 110.794 16.8921C110.306 17.3239 109.718 17.6847 109.03 17.9745C108.343 18.2643 107.567 18.4092 106.704 18.4092Z" fill="url(#paint8_linear_77_2515)"/>
<defs>
<linearGradient id="paint0_linear_77_2515" x1="105.512" y1="8.90693" x2="2.13992" y2="22.1143" gradientUnits="userSpaceOnUse">
<stop stop-color="#FFF506"/>
<stop offset="1" stop-color="#FC8500"/>
</linearGradient>
<linearGradient id="paint1_linear_77_2515" x1="105.512" y1="8.90693" x2="2.13992" y2="22.1143" gradientUnits="userSpaceOnUse">
<stop stop-color="#FFF506"/>
<stop offset="1" stop-color="#FC8500"/>
</linearGradient>
<linearGradient id="paint2_linear_77_2515" x1="105.512" y1="8.90693" x2="2.13992" y2="22.1143" gradientUnits="userSpaceOnUse">
<stop stop-color="#FFF506"/>
<stop offset="1" stop-color="#FC8500"/>
</linearGradient>
<linearGradient id="paint3_linear_77_2515" x1="105.512" y1="8.90693" x2="2.13992" y2="22.1143" gradientUnits="userSpaceOnUse">
<stop stop-color="#FFF506"/>
<stop offset="1" stop-color="#FC8500"/>
</linearGradient>
<linearGradient id="paint4_linear_77_2515" x1="105.512" y1="8.90693" x2="2.13992" y2="22.1143" gradientUnits="userSpaceOnUse">
<stop stop-color="#FFF506"/>
<stop offset="1" stop-color="#FC8500"/>
</linearGradient>
<linearGradient id="paint5_linear_77_2515" x1="105.512" y1="8.90693" x2="2.13992" y2="22.1143" gradientUnits="userSpaceOnUse">
<stop stop-color="#FFF506"/>
<stop offset="1" stop-color="#FC8500"/>
</linearGradient>
<linearGradient id="paint6_linear_77_2515" x1="105.512" y1="8.90693" x2="2.13992" y2="22.1143" gradientUnits="userSpaceOnUse">
<stop stop-color="#FFF506"/>
<stop offset="1" stop-color="#FC8500"/>
</linearGradient>
<linearGradient id="paint7_linear_77_2515" x1="105.512" y1="8.90693" x2="2.13992" y2="22.1143" gradientUnits="userSpaceOnUse">
<stop stop-color="#FFF506"/>
<stop offset="1" stop-color="#FC8500"/>
</linearGradient>
<linearGradient id="paint8_linear_77_2515" x1="105.512" y1="8.90693" x2="2.13992" y2="22.1143" gradientUnits="userSpaceOnUse">
<stop stop-color="#FFF506"/>
<stop offset="1" stop-color="#FC8500"/>
</linearGradient>
</defs>
</svg>
